PathFileType	4	(X/Y/Z)	C:/Users/beibeiliu/ov580/test_trc/User3\sequence.28_training_dense_right.trc
DataRate	CameraRate	NumFrames	NumMarkers	Units	OrigDataRate	OrigDataStartFrame	OrigNumFrames
120	120	10	19	mm	120	51	100
Frame#	Time	ThumbCMC			ThumbMCP			ThumbIP			ThumbTip			IndexMCP			IndexPIP			IndexTip			MiddleMCP			MiddlePIP			MiddleTip			RingMCP			RingPIP			RingTip			PinkyMCP			PinkyPIP			PinkyTip			BackHand1			BackHand2			BackHand3	
		X0	Y0	Z0	X1	Y1	Z1	X2	Y2	Z2	X3	Y3	Z3	X4	Y4	Z4	X5	Y5	Z5	X6	Y6	Z6	X7	Y7	Z7	X8	Y8	Z8	X9	Y9	Z9	X10	Y10	Z10	X11	Y11	Z11	X12	Y12	Z12	X13	Y13	Z13	X14	Y14	Z14	X15	Y15	Z15	X16	Y16	Z16	X17	Y17	Z17	X18	Y18	Z18	
50	0.416667	113.978	50.4288	30.2779	94.5468	42.7733	4.81633	83.6404	40.0566	-19.9821	77.8753	38.0886	-45.3259	118.722	102.214	-24.683	106.377	109.34	-46.9031	98.4593	114.751	-67.9078	146.93	106.047	-33.8947	141.015	114.731	-56.0499	139.207	123.113	-86.7318	171.812	91.7898	-31.9214	170.087	102.264	-52.8213	171.233	110.88	-81.9381	188.759	70.3455	-27.257	194.456	77.2007	-47.2007	205.42	78.228	-67.3395	174.185	76.3673	15.1436	180.023	62.6743	41.1941	148.671	73.8814	37.3387	
51	0.425	118.096	63.3341	29.2995	102.1	59.9726	-2.34784	90.9255	55.5964	-25.9015	84.298	53.7491	-50.2934	133.018	119.912	-21.7479	122.161	131.683	-42.5937	110.089	144.625	-62.9184	161.499	120.835	-26.491	158.809	138.13	-48.7706	155.237	157.019	-77.2861	182.725	104.571	-30.6975	180.15	120.994	-55.2464	184.156	127.374	-81.6549	195.377	82.6284	-32.1115	201.969	82.5747	-51.0662	205.14	86.9714	-77.939	182.366	87.5073	13.814	189.008	69.7517	39.2555	153.672	88.7021	35.7865	
52	0.433333	128.747	72.3178	24.2998	111.291	65.0951	-5.7713	102.017	62.8527	-32.3517	92.5995	59.2347	-52.5524	150.84	128.948	-25.5294	140.222	146.392	-42.2904	138.12	161.463	-63.7322	182.436	125.672	-28.321	180.359	143.697	-48.1051	184.976	159.822	-76.7	193.487	104.936	-37.67	194.725	112.819	-62.0671	194.31	114.631	-91.4755	202.363	78.1673	-36.5344	202.253	77.2968	-59.6215	200.263	74.7884	-82.699	197.2	85.5136	12.0772	194.457	68.5128	39.6983	167.821	90.3328	31.3797	
53	0.441667	137.181	72.7951	24.083	118.306	66.3205	-5.64525	108.201	62.8906	-30.5893	100.746	60.8057	-57.2207	163.998	125.337	-22.6312	160.217	143.171	-39.6911	158.181	160.177	-57.711	189.595	119.685	-30.717	193.966	136.76	-58.4934	193.928	145.586	-86.1026	200.934	93.8408	-44.5936	197.933	95.813	-69.0323	185.679	92.5583	-97.3016	207.647	68.2247	-38.6006	204.453	63.9446	-60.2679	196.335	64.5478	-81.5757	205.054	79.91	13.1204	202.63	65.8085	38.0552	175.203	91.9258	31.656	
54	0.45	141.863	69.4465	24.9806	125.213	63.6148	-3.56296	112.569	62.8611	-32.943	106.029	58.3428	-52.1727	168.58	125.236	-24.4412	163.942	145.053	-40.4358	164.544	159.699	-53.7712	189.185	114.028	-38.1984	186.106	123.346	-68.6557	177.201	124.404	-95.7939	196.516	89.2395	-44.9412	194.453	85.8488	-69.9595	181.282	78.5735	-93.1184	209.972	67.6919	-39.4777	206.457	64.7325	-61.2531	201.392	61.0174	-86.1825	204.056	79.4472	11.468	205.258	62.2456	39.1616	177.565	91.1315	30.4356	
55	0.458333	142.131	67.1878	25.1016	126.15	63.8106	-5.82138	112.69	60.9623	-29.6569	108.595	58.8719	-55.1632	164.614	122.499	-22.5883	164.067	139.334	-40.4134	164.456	155.363	-53.4156	181.794	106.965	-41.4354	172.35	107.911	-70.4114	159.023	95.9113	-100.82	198.01	88.0343	-40.4788	186.386	89.6008	-69.4556	179.767	76.376	-93.4849	213.33	70.5821	-30.9096	218.13	70.8523	-56.5438	214.567	74.0224	-78.7762	205.264	79.6324	13.6034	203.86	61.6577	40.9736	173.428	89.4055	32.6496	
56	0.466667	141.21	66.3402	26.7547	124.257	62.8525	-3.72808	114.056	64.119	-29.8595	106.598	62.4957	-51.9454	164.414	119.646	-24.059	158.672	134.159	-39.6352	159.728	152.562	-57.8904	176.792	102.502	-40.8736	167.063	97.9526	-67.7555	149.629	82.085	-93.8224	193.878	91.1976	-36.6865	191.027	91.2201	-66.8397	181.008	80.3974	-90.3922	213.241	73.7092	-27.1745	223.372	75.196	-49.1554	225.839	76.8969	-73.8638	204.254	76.1844	16.6866	203.707	62.4777	42.2248	175.243	86.0036	33.3035	
57	0.475	138.257	64.5041	31.0027	121.188	66.8029	-0.904442	108.487	69.8721	-28.2728	104.742	68.4718	-44.7964	157.341	115.963	-22.3606	153.814	128.926	-44.2318	151.28	141.334	-66.4872	174.655	98.7706	-40.173	160.606	95.439	-68.6578	147.25	79.0955	-91.8896	194.695	88.9091	-35.0324	189.421	93.2355	-62.1854	176.348	87.0231	-88.7485	215.652	70.9562	-25.8845	219.504	76.894	-44.5688	227.753	81.3612	-70.6399	199.037	76.6895	19.3057	202.203	61.7988	41.1183	173.624	83.8687	35.3544	
58	0.483333	133.587	63.1284	33.2167	115.072	65.1252	7.94241	101.318	71.8834	-16.8398	97.2014	74.3467	-39.4714	148.834	107.025	-24.6083	137.071	117.259	-48.5121	131.968	122.461	-70.5177	168.708	96.8257	-35.5249	158.864	95.1344	-67.7984	140.629	85.8636	-94.6504	185.575	88.805	-31.2518	186.254	91.2365	-60.6859	177.366	89.8645	-84.9058	208.626	66.0266	-22.2926	216.258	71.3631	-42.3349	225.59	76.441	-63.5848	194.652	69.9214	20.6618	196.391	56.1522	47.6568	166.873	79.7671	39.5491	
59	0.491667	126.175	59.3777	36.6715	104.296	66.3092	13.1995	97.6651	73.1327	-14.7872	86.7191	75.9186	-31.8347	132.483	98.858	-25.9413	123.811	99.6602	-50.1047	117.442	100.018	-75.0172	160.578	96.4598	-37.0872	153.598	100.301	-64.3272	143.359	98.7767	-91.7927	181.721	85.466	-30.6016	182.515	92.4162	-56.4111	178.751	92.865	-82.6934	199.8	61.0328	-19.5834	208.969	64.9985	-39.7287	214.275	70.3825	-60.8862	184.464	70.6395	17.5855	187.992	55.8081	48.369	159.12	77.2131	40.649	
